<svg xmlns="http://www.w3.org/2000/svg" width="16" height="16"><style type="text/css">.icon-canvas-transparent{opacity:0;fill:#F6F6F6;} .icon-vs-out{fill:#F6F6F6;} .icon-vs-bg{fill:#424242;}</style><path class="icon-canvas-transparent" d="M16 16h-16v-16h16v16z" id="canvas"/><path class="icon-vs-out" d="M0 0v16h16v-16h-16zm13 10.944l-1.617-1.613 1.617-1.617v3.23zm0-3.259l-2.791-2.783-.944.947-2.849-2.849h6.584v4.685zm-7.412-4.685l-2.588 2.588v-2.588h2.588zm-2.588 5.413l1.818 1.81.182-.182v1.959h2.195l1.001 1h-5.196v-4.587zm7.981 4.587l2.019-2.019v2.019h-2.019z" id="outline"/><path class="icon-vs-bg" d="M11.604 10.964l-2.015 2.014-1.388-1.386.595-.592h-2.796v-3.363l-1.182 1.175-1.818-1.811 3.001-3.001 1.812 1.813-1.185 1.187h2.902l.682-.684 1.388 1.384-2.015 2.015-1.388-1.385.332-.33h-1.529v2h2.795l.42-.422 1.389 1.386zm-9.604 2.036h-1v2h2v-1h-1v-1zm0-3h-1v2h1v-2zm0-8h1v-1h-2v2h1v-1zm7-1h-2v1h2v-1zm-5 14h2v-1h-2v1zm-2-11h-1v2h1v-2zm0 3h-1v2h1v-2zm4-6h-2v1h2v-1zm8 5h1v-2h-1v2zm-7 9h2v-1h-2v1zm7-3h1v-2h-1v2zm-1-11v1h1v1h1v-2h-2zm1 8h1v-2h-1v2zm-4 6h2v-1h-2v1zm0-13h2v-1h-2v1zm4 12h-1v1h2v-2h-1v1z" id="iconBg"/></svg>