<svg xmlns="http://www.w3.org/2000/svg" viewBox="0 0 16 16" enable-background="new 0 0 16 16"><style type="text/css">.icon-canvas-transparent{opacity:0;fill:#F6F6F6;} .icon-vs-out{fill:#F6F6F6;} .icon-vs-bg{fill:#424242;} .icon-vs-fg{fill:#F0EFF1;}</style><path class="icon-canvas-transparent" d="M16 16h-16v-16h16v16z" id="canvas"/><path class="icon-vs-out" d="M0 16v-12h2v-2h2v-2h12v12h-2v2h-2v2h-12z" id="outline"/><path class="icon-vs-bg" d="M5 1v2h-2v2h-2v10h10v-2h2v-2h2v-10h-10zm5 13h-8v-8h8v8zm2-2h-1v-7h-7v-1h8v8zm2-2h-1v-7h-7v-1h8v8z" id="iconBg"/><path class="icon-vs-fg" d="M10 14h-8v-8h8v8zm2-2h-1v-7h-7v-1h8v8zm2-2h-1v-7h-7v-1h8v8z" id="iconFg"/></svg>