<svg xmlns="http://www.w3.org/2000/svg" viewBox="0 0 16 16"><defs><style>.icon-canvas-transparent,.icon-vs-out{fill:#f6f6f6;}.icon-canvas-transparent{opacity:0;}.icon-vs-bg{fill:#424242;}.icon-vs-fg{fill:#f0eff1;}</style></defs><title>ClassLibrary_16x</title><g id="canvas"><path id="_Compound_Path_" data-name="&lt;Compound Path&gt;" class="icon-canvas-transparent" d="M16,16H0V0H16Z"/></g><g id="outline"><path id="_Compound_Path_2" data-name="&lt;Compound Path&gt;" class="icon-vs-out" d="M16,15H8.981l-1,1H7.2l-1-1H0V2H5V1h6V2h5Z"/></g><g id="iconBg"><path id="_Compound_Path_3" data-name="&lt;Compound Path&gt;" class="icon-vs-bg" d="M9.6,12.963,7.589,14.977,6.2,13.592,6.8,13H4V9.637L2.818,10.81,1,9,4,6,5.813,7.813,4.628,9h2.9l.682-.684L9.6,9.7,7.585,11.715,6.2,10.33,6.529,10H5v2H7.8l.42-.422ZM15,3V14H11V3Zm-1,9H12v1h2Zm0-2H12v1h2Zm0-6H12V6h2Zm-4,7.946V10.713l-.617.617ZM9.981,14H10v-.019ZM6,6.583V2h4V8.687L8.209,6.9l-.944.947ZM7,4H9V3H7ZM2.587,6H2V4H4v.587l0,0,1,1V3H1V7.587ZM2,13V12h.6L1,10.412V14H3V13Z"/></g><g id="iconFg"><path id="_Compound_Path_4" data-name="&lt;Compound Path&gt;" class="icon-vs-fg" d="M14,4V6H12V4ZM7,4H9V3H7Zm5,7h2V10H12Zm0,2h2V12H12Zm-9-.959-.182.182L2.6,12H2v1H3ZM4,4.587V4H2V6h.587Z"/></g></svg>