<svg xmlns="http://www.w3.org/2000/svg" viewBox="0 0 16 16"><style>.icon-canvas-transparent{opacity:0;fill:#f6f6f6}.icon-vs-out{fill:#f6f6f6}.icon-vs-bg{fill:#424242}.icon-vs-fg{fill:#f0eff1}</style><path class="icon-canvas-transparent" d="M16 16H0V0h16v16z" id="canvas"/><path class="icon-vs-out" d="M7.21 0H6v1.105L4.895 0H3.601L2.577 1.023h-.089C.875 1.024.002 2.306 0 3.513V16h10v-5h6V0H7.21z" id="outline"/><path class="icon-vs-bg" d="M1.992 4.982H1V3.495c.001-.599.398-1.489 1.489-1.489v-.001l1.574-.002-.532-.54.707-.707L6 2.518 4.256 4.25l-.707-.707.532-.54-1.592-.005c-.4 0-.491.274-.497.503v1.481zm1.008 4h4v-1H3v1zm0 2h4v-1H3v1zm0 2h4v-1H3v1zm-2-7h8v9H1v-9zm1 8h6v-7H2v7zm5-13v4h1v-3h6v7h-4v1h5v-9H7zm6 2H9v1h4v-1zm-3 5h3v-1h-3v1zm3-3h-3v1h3v-1z" id="iconBg"/><path class="icon-vs-fg" d="M8 2v3h5v1h-3v1h3v1h-3v1h4V2H8zm5 2H9V3h4v1zM2 7v7h6V7H2zm5 6H3v-1h4v1zm0-2H3v-1h4v1zm0-2H3V8h4v1z" id="iconFg"/></svg>