<svg xmlns="http://www.w3.org/2000/svg" viewBox="0 0 16 16"><style>.icon-canvas-transparent{opacity:0;fill:#f6f6f6}.icon-vs-out{fill:#f6f6f6}.icon-vs-action-orange{fill:#c27d1a}</style><g id="canvas"><path id="XMLID_1_" class="icon-canvas-transparent" d="M16 16H0V0h16v16z"/></g><path class="icon-vs-out" d="M12.915 8.497l-3.914 3.916-2.41-2.402H4V6.417L2.5 7.921 0 5.417v-1.83L3.585 0h.83l2.991 3h.181l1.414-1.407 2.914 2.908-1.503 1.502 2.503 2.494z" id="outline"/><g id="iconBg"><path id="XMLID_5_" class="icon-vs-action-orange" d="M11.5 8.498L9 11 7.5 9.505l.5-.494H5V5H4L2.5 6.505l-2-2.003L4 1l2 2.006L5 4h3l1-.995 1.5 1.497L8 7 6.5 5.506l.5-.495L6 5v3l3 .011 1-1.006 1.5 1.493z"/></g></svg>