<svg xmlns="http://www.w3.org/2000/svg" width="16" height="16"><style type="text/css">.icon-canvas-transparent{opacity:0;fill:#F6F6F6;} .icon-vs-out{fill:#F6F6F6;} .icon-vs-bg{fill:#424242;} .icon-vs-action-orange{fill:#C27D1A;}</style><path class="icon-canvas-transparent" d="M16 16h-16v-16h16v16z" id="canvas"/><path class="icon-vs-out" d="M16 12c0 2.209-1.791 4-4 4s-4-1.791-4-4c0-.183.03-.356.054-.533l-1.469-1.467h-2.585v-3.586l-1.5 1.5-2.5-2.5v-1.828l3.586-3.586h.828l3 3h.172l1.414-1.414 2.914 2.914-1.5 1.5 2.047 2.046c1.989.232 3.539 1.903 3.539 3.954z" id="outline"/><path class="icon-vs-action-orange" d="M7.5 9.5l.5-.5h-3v-4h-1l-1.5 1.5-2-2 3.5-3.5 2 2-1 1h3l1-1 1.5 1.5-2.5 2.5-1.5-1.5.5-.5h-1v3h3l1-1 1.108 1.108c-1.23.281-2.24 1.126-2.749 2.251l-.859-.859z" id="iconBg"/><path class="icon-vs-bg" d="M12 9c-1.654 0-3 1.346-3 3s1.346 3 3 3 3-1.346 3-3-1.346-3-3-3zm1.587 1.455l-.042-.042.042.042zm-3.804 1.545c0-1.223.994-2.217 2.217-2.217.47 0 .904.148 1.264.398l-3.082 3.082c-.25-.359-.399-.793-.399-1.263zm.63 1.545l.042.042-.042-.042zm1.587.672c-.47 0-.904-.148-1.264-.398l3.082-3.082c.25.359.398.794.398 1.264.001 1.222-.993 2.216-2.216 2.216z" id="notificationBg"/></svg>