<svg xmlns="http://www.w3.org/2000/svg" viewBox="0 0 16 16"><style>.st0{opacity:0}.st0,.st1{fill:#f6f6f6}.st2{fill:#f0eff1}.st3{fill:#424242}.st4{fill:#388a34}</style><g id="outline"><path class="st0" d="M0 0h16v16H0z"/><path class="st1" d="M11 2V1H5v1H0v13h6.174l1.002 1h.826l1.001-1H16V2z"/><path class="st2" d="M2 4v2h.625L4 4.729V4H2M7 3h2v1H7zM12 4h2v2h-2zM12 10h2v1h-2zM12 12h2v1h-2z"/></g><g id="icon_x5F_bg"><path class="st3" d="M7.226 7.836l-.186.186h.075l1.094-1.099L10 8.71V2H6v4.609l1.226 1.227zM7 3h2v1H7V3zM9.383 11.354l.617.615v-1.233zM2.609 6H2V4h2v.609l.001-.001.999 1V3H1v4.609zM11 3v6.707l.015.015-.015.014v3.23l.019.019-.019.019V14h4V3h-4zm3 10h-2v-1h2v1zm0-2h-2v-1h2v1zm0-5h-2V4h2v2zM3.414 13.414L3 13H2v-1l-1-1v3h2.414z"/></g><path class="st4" d="M8.215 11.601l-.42.422H5v-2h1.529l-.332.329 1.388 1.385L9.6 9.723 8.211 8.338l-.682.684H4.628l1.185-1.186-1.812-1.814L1 9.023l1.818 1.811L4 9.659v3.364h2.796l-.595.591L7.589 15l2.015-2.014z" id="color_x5F_importance"/></svg>