<svg xmlns="http://www.w3.org/2000/svg" viewBox="0 0 16 16"><style>.st0{opacity:0}.st0,.st1{fill:#f6f6f6}.st2{fill:#388a34}.st3{fill:#f0eff1}</style><g id="outline"><path class="st0" d="M0 0h16v16H0z"/><path class="st1" d="M11.5 12c-1.914 0-3.601-1.242-4.227-3H5.591A2.994 2.994 0 0 1 3 10.5c-1.654 0-3-1.346-3-3s1.346-3 3-3A2.99 2.99 0 0 1 5.591 6h1.683c.626-1.76 2.313-3 4.227-3A4.505 4.505 0 0 1 16 7.5c0 2.48-2.019 4.5-4.5 4.5z"/></g><path class="st2" d="M11.5 4C9.741 4 8.296 5.309 8.051 7H4.929A1.995 1.995 0 0 0 1 7.5a2 2 0 0 0 2 2c.931 0 1.706-.638 1.929-1.5h3.122c.245 1.691 1.69 3 3.449 3 1.93 0 3.5-1.57 3.5-3.5C15 5.571 13.43 4 11.5 4zm0 5A1.501 1.501 0 1 1 13 7.5c0 .827-.673 1.5-1.5 1.5z" id="color_x5F_importance"/><path class="st3" d="M11.5 9A1.501 1.501 0 1 1 13 7.5c0 .827-.673 1.5-1.5 1.5z" id="icon_x5F_fg"/></svg>