<svg xmlns="http://www.w3.org/2000/svg" viewBox="0 0 16 16"><style>.st0{opacity:0}.st0,.st1{fill:#f6f6f6}.st2{fill:none}.st3{fill:#388a34}.st4{fill:#f0eff1}</style><g id="outline"><path class="st0" d="M0 0h16v16H0z"/><path class="st1" d="M11 2V1H5v1H0v13h16V2z"/></g><g id="icon_x5F_bg"><path class="st2" d="M7 3h2v1H7zM7 10h2v1H7zM2 4h2v2H2zM7 12h2v1H7zM2 12h2v1H2zM2 10h2v1H2zM12 10h2v1h-2zM12 4h2v2h-2zM12 12h2v1h-2z"/><path class="st3" d="M1 14h4V3H1v11zM2 4h2v2H2V4zm0 6h2v1H2v-1zm0 2h2v1H2v-1zM11 3v11h4V3h-4zm3 10h-2v-1h2v1zm0-2h-2v-1h2v1zm0-5h-2V4h2v2zM6 14h4V2H6v12zM7 3h2v1H7V3zm0 7h2v1H7v-1zm0 2h2v1H7v-1z"/></g><g id="icon_x5F_fg"><path class="st4" d="M2 4h2v2H2zM7 12h2v1H7zM2 10h2v1H2zM2 12h2v1H2zM12 12h2v1h-2zM12 10h2v1h-2zM12 4h2v2h-2zM7 3h2v1H7zM7 10h2v1H7z"/></g></svg>