<svg xmlns="http://www.w3.org/2000/svg" viewBox="0 0 16 16"><style>.icon-canvas-transparent{opacity:0;fill:#f6f6f6}.icon-vs-out{fill:#f6f6f6}.icon-vs-fg{fill:#f0eff1}.icon-cs-green{fill:#388a34}</style><path class="icon-canvas-transparent" d="M16 0v16H0V0h16z" id="canvas"/><path class="icon-vs-out" d="M1 16V4h1.654a2.89 2.89 0 0 1 .531-1.883A2.894 2.894 0 0 1 5.071.933c.179-.03.345-.043.503-.043 1.286 0 2.032.854 2.429 1.487C8.4 1.744 9.147.89 10.435.89A2.916 2.916 0 0 1 13.352 4H15v12H1z" id="outline"/><path class="icon-vs-fg" d="M3 6h4.5v8H3V6zm5.5 0v8H13V6H8.5z" id="iconFg"/><g id="iconBg"><path class="icon-cs-green" d="M11.9 5c.226-.264.377-.556.432-.878a1.913 1.913 0 0 0-1.563-2.203c-1.181-.197-1.772.656-2.157 1.423-.076.151-.295.641-.526 1.16l-.083.183-.097-.217a50.5 50.5 0 0 0-.511-1.126c-.386-.767-.971-1.62-2.157-1.423A1.895 1.895 0 0 0 4 2.696a1.903 1.903 0 0 0-.326 1.426c.055.322.206.614.432.878H2v10h12V5h-2.1zM9.506 3.791c.458-.913.764-.942 1.096-.885a.91.91 0 0 1 .744 1.049c-.042.249-.211.471-.516.68-.147.1-.387.232-.645.366H8.958l.041-.091c.223-.501.433-.973.507-1.119zm-4.33.843c-.305-.209-.473-.431-.515-.679a.908.908 0 0 1 .744-1.05c.33-.057.638-.026 1.095.886.072.143.274.598.492 1.085L7.048 5H5.819a7.356 7.356 0 0 1-.643-.366zM3 14V6h4.5v8H3zm10 0H8.5V6H13v8z"/></g></svg>