<svg xmlns="http://www.w3.org/2000/svg" viewBox="0 0 16 16"><style>.icon-canvas-transparent{opacity:0;fill:#f6f6f6}.icon-vs-out{fill:#f6f6f6}.icon-vs-fg{fill:#f0eff1}.icon-vs-action-orange{fill:#c27d1a}</style><path class="icon-canvas-transparent" d="M16 16H0V0h16v16z" id="canvas"/><path class="icon-vs-out" d="M12 3.586v3.828L10.414 9H8v2.414L6.414 13H1.586L0 11.414V7.586L1.586 6H4V3.586L5.586 2h4.828L12 3.586z" id="outline"/><path class="icon-vs-fg" d="M10 6v1H7.414l-1-1H10zm0-2H6v1h4V4zm-4 6H2v1h4v-1zm0-2H2v1h4V8z" id="iconFg"/><g id="iconBg"><path class="icon-vs-action-orange" d="M6 7H2L1 8v3l1 1h4l1-1V8L6 7zm0 4H2v-1h4v1zm0-2H2V8h4v1zm4-6H6L5 4v2h5v1H7.414L8 7.586V8h2l1-1V4l-1-1zm0 2H6V4h4v1z"/></g></svg>